<mxfile host="app.diagrams.net" modified="2022-08-26T15:30:27.192Z" agent="5.0 (Windows NT 10.0; Win64; x64) AppleWebKit/537.36 (KHTML, like Gecko) Chrome/104.0.0.0 Safari/537.36" etag="YbWK5b5mcnItzZx0jeXa" version="20.2.7" type="github">
  <diagram id="Y6V-qRkkfWEcnYsIu3VQ" name="PÃ¡gina-1">
    <mxGraphModel dx="1422" dy="794" grid="1" gridSize="10" guides="1" tooltips="1" connect="1" arrows="1" fold="1" page="1" pageScale="1" pageWidth="827" pageHeight="1169" math="0" shadow="0">
      <root>
        <mxCell id="0" />
        <mxCell id="1" parent="0" />
        <mxCell id="iTkqzDuuhyXPeDko3WbO-4" value="" style="edgeStyle=orthogonalEdgeStyle;rounded=0;orthogonalLoop=1;jettySize=auto;html=1;" parent="1" source="iTkqzDuuhyXPeDko3WbO-1" target="iTkqzDuuhyXPeDko3WbO-3" edge="1">
          <mxGeometry relative="1" as="geometry" />
        </mxCell>
        <mxCell id="iTkqzDuuhyXPeDko3WbO-1" value="Inicio" style="ellipse;whiteSpace=wrap;html=1;" parent="1" vertex="1">
          <mxGeometry x="85" y="20" width="120" height="80" as="geometry" />
        </mxCell>
        <mxCell id="iTkqzDuuhyXPeDko3WbO-2" value="Declarar num_secret, num_ingresado" style="rounded=0;whiteSpace=wrap;html=1;" parent="1" vertex="1">
          <mxGeometry x="90" y="120" width="120" height="60" as="geometry" />
        </mxCell>
        <mxCell id="iTkqzDuuhyXPeDko3WbO-8" value="" style="edgeStyle=orthogonalEdgeStyle;rounded=0;orthogonalLoop=1;jettySize=auto;html=1;" parent="1" source="iTkqzDuuhyXPeDko3WbO-3" target="iTkqzDuuhyXPeDko3WbO-5" edge="1">
          <mxGeometry relative="1" as="geometry" />
        </mxCell>
        <mxCell id="iTkqzDuuhyXPeDko3WbO-3" value="Asignar num_secreto = 7" style="shape=parallelogram;perimeter=parallelogramPerimeter;whiteSpace=wrap;html=1;fixedSize=1;" parent="1" vertex="1">
          <mxGeometry x="70" y="210" width="150" height="70" as="geometry" />
        </mxCell>
        <mxCell id="iTkqzDuuhyXPeDko3WbO-9" value="" style="edgeStyle=orthogonalEdgeStyle;rounded=0;orthogonalLoop=1;jettySize=auto;html=1;" parent="1" source="iTkqzDuuhyXPeDko3WbO-5" target="iTkqzDuuhyXPeDko3WbO-6" edge="1">
          <mxGeometry relative="1" as="geometry" />
        </mxCell>
        <mxCell id="iTkqzDuuhyXPeDko3WbO-5" value="&quot;Bienvenido al juego del numero secreto&quot;" style="shape=document;whiteSpace=wrap;html=1;boundedLbl=1;" parent="1" vertex="1">
          <mxGeometry x="85" y="320" width="120" height="80" as="geometry" />
        </mxCell>
        <mxCell id="iTkqzDuuhyXPeDko3WbO-10" value="" style="edgeStyle=orthogonalEdgeStyle;rounded=0;orthogonalLoop=1;jettySize=auto;html=1;" parent="1" source="iTkqzDuuhyXPeDko3WbO-6" target="iTkqzDuuhyXPeDko3WbO-7" edge="1">
          <mxGeometry relative="1" as="geometry" />
        </mxCell>
        <mxCell id="iTkqzDuuhyXPeDko3WbO-6" value="&quot;Trata de adivinar el numero secreto del 1 al 10&quot;" style="shape=document;whiteSpace=wrap;html=1;boundedLbl=1;" parent="1" vertex="1">
          <mxGeometry x="85" y="430" width="120" height="80" as="geometry" />
        </mxCell>
        <mxCell id="iTkqzDuuhyXPeDko3WbO-12" value="" style="edgeStyle=orthogonalEdgeStyle;rounded=0;orthogonalLoop=1;jettySize=auto;html=1;" parent="1" source="iTkqzDuuhyXPeDko3WbO-7" target="iTkqzDuuhyXPeDko3WbO-11" edge="1">
          <mxGeometry relative="1" as="geometry" />
        </mxCell>
        <mxCell id="iTkqzDuuhyXPeDko3WbO-7" value="&quot;Ingresa un numero del 1 al 10&quot;" style="shape=document;whiteSpace=wrap;html=1;boundedLbl=1;" parent="1" vertex="1">
          <mxGeometry x="85" y="545" width="120" height="80" as="geometry" />
        </mxCell>
        <mxCell id="iTkqzDuuhyXPeDko3WbO-14" value="" style="edgeStyle=orthogonalEdgeStyle;rounded=0;orthogonalLoop=1;jettySize=auto;html=1;" parent="1" source="iTkqzDuuhyXPeDko3WbO-11" target="iTkqzDuuhyXPeDko3WbO-13" edge="1">
          <mxGeometry relative="1" as="geometry" />
        </mxCell>
        <mxCell id="iTkqzDuuhyXPeDko3WbO-11" value="Asignar el num_ingresado" style="shape=parallelogram;perimeter=parallelogramPerimeter;whiteSpace=wrap;html=1;fixedSize=1;" parent="1" vertex="1">
          <mxGeometry x="85" y="660" width="120" height="60" as="geometry" />
        </mxCell>
        <mxCell id="iTkqzDuuhyXPeDko3WbO-13" value="1" style="ellipse;whiteSpace=wrap;html=1;aspect=fixed;" parent="1" vertex="1">
          <mxGeometry x="105" y="760" width="80" height="80" as="geometry" />
        </mxCell>
        <mxCell id="iTkqzDuuhyXPeDko3WbO-17" value="" style="edgeStyle=orthogonalEdgeStyle;rounded=0;orthogonalLoop=1;jettySize=auto;html=1;" parent="1" source="iTkqzDuuhyXPeDko3WbO-15" target="iTkqzDuuhyXPeDko3WbO-16" edge="1">
          <mxGeometry relative="1" as="geometry" />
        </mxCell>
        <mxCell id="iTkqzDuuhyXPeDko3WbO-15" value="1" style="ellipse;whiteSpace=wrap;html=1;aspect=fixed;" parent="1" vertex="1">
          <mxGeometry x="400" y="20" width="80" height="80" as="geometry" />
        </mxCell>
        <mxCell id="iTkqzDuuhyXPeDko3WbO-19" style="edgeStyle=orthogonalEdgeStyle;rounded=0;orthogonalLoop=1;jettySize=auto;html=1;entryX=0.5;entryY=0;entryDx=0;entryDy=0;" parent="1" source="iTkqzDuuhyXPeDko3WbO-16" target="iTkqzDuuhyXPeDko3WbO-18" edge="1">
          <mxGeometry relative="1" as="geometry">
            <Array as="points">
              <mxPoint x="320" y="190" />
            </Array>
          </mxGeometry>
        </mxCell>
        <mxCell id="iTkqzDuuhyXPeDko3WbO-27" value="SI" style="edgeLabel;html=1;align=center;verticalAlign=middle;resizable=0;points=[];" parent="iTkqzDuuhyXPeDko3WbO-19" vertex="1" connectable="0">
          <mxGeometry x="-0.3841" y="-1" relative="1" as="geometry">
            <mxPoint as="offset" />
          </mxGeometry>
        </mxCell>
        <mxCell id="iTkqzDuuhyXPeDko3WbO-21" style="edgeStyle=orthogonalEdgeStyle;rounded=0;orthogonalLoop=1;jettySize=auto;html=1;entryX=0.5;entryY=0;entryDx=0;entryDy=0;" parent="1" source="iTkqzDuuhyXPeDko3WbO-16" target="iTkqzDuuhyXPeDko3WbO-20" edge="1">
          <mxGeometry relative="1" as="geometry" />
        </mxCell>
        <mxCell id="iTkqzDuuhyXPeDko3WbO-26" value="NO" style="edgeLabel;html=1;align=center;verticalAlign=middle;resizable=0;points=[];" parent="iTkqzDuuhyXPeDko3WbO-21" vertex="1" connectable="0">
          <mxGeometry x="0.0857" y="1" relative="1" as="geometry">
            <mxPoint as="offset" />
          </mxGeometry>
        </mxCell>
        <mxCell id="iTkqzDuuhyXPeDko3WbO-16" value="Si num_secreto == num_ingresado" style="rhombus;whiteSpace=wrap;html=1;" parent="1" vertex="1">
          <mxGeometry x="380" y="130" width="120" height="130" as="geometry" />
        </mxCell>
        <mxCell id="iTkqzDuuhyXPeDko3WbO-31" style="edgeStyle=orthogonalEdgeStyle;rounded=0;orthogonalLoop=1;jettySize=auto;html=1;entryX=0.5;entryY=0;entryDx=0;entryDy=0;" parent="1" source="iTkqzDuuhyXPeDko3WbO-18" target="iTkqzDuuhyXPeDko3WbO-30" edge="1">
          <mxGeometry relative="1" as="geometry">
            <Array as="points">
              <mxPoint x="320" y="520" />
              <mxPoint x="530" y="520" />
            </Array>
          </mxGeometry>
        </mxCell>
        <mxCell id="iTkqzDuuhyXPeDko3WbO-18" value="&quot;felicidades adivinaste el nuemro secreto&quot;" style="shape=document;whiteSpace=wrap;html=1;boundedLbl=1;" parent="1" vertex="1">
          <mxGeometry x="260" y="280" width="120" height="80" as="geometry" />
        </mxCell>
        <mxCell id="iTkqzDuuhyXPeDko3WbO-24" style="edgeStyle=orthogonalEdgeStyle;rounded=0;orthogonalLoop=1;jettySize=auto;html=1;entryX=0.425;entryY=0;entryDx=0;entryDy=0;entryPerimeter=0;" parent="1" source="iTkqzDuuhyXPeDko3WbO-20" target="iTkqzDuuhyXPeDko3WbO-22" edge="1">
          <mxGeometry relative="1" as="geometry" />
        </mxCell>
        <mxCell id="iTkqzDuuhyXPeDko3WbO-28" value="NO" style="edgeLabel;html=1;align=center;verticalAlign=middle;resizable=0;points=[];" parent="iTkqzDuuhyXPeDko3WbO-24" vertex="1" connectable="0">
          <mxGeometry x="-0.7" y="-1" relative="1" as="geometry">
            <mxPoint as="offset" />
          </mxGeometry>
        </mxCell>
        <mxCell id="iTkqzDuuhyXPeDko3WbO-25" style="edgeStyle=orthogonalEdgeStyle;rounded=0;orthogonalLoop=1;jettySize=auto;html=1;entryX=0.633;entryY=0.025;entryDx=0;entryDy=0;entryPerimeter=0;" parent="1" source="iTkqzDuuhyXPeDko3WbO-20" target="iTkqzDuuhyXPeDko3WbO-23" edge="1">
          <mxGeometry relative="1" as="geometry">
            <Array as="points">
              <mxPoint x="760" y="325" />
              <mxPoint x="760" y="392" />
            </Array>
          </mxGeometry>
        </mxCell>
        <mxCell id="iTkqzDuuhyXPeDko3WbO-29" value="SI" style="edgeLabel;html=1;align=center;verticalAlign=middle;resizable=0;points=[];" parent="iTkqzDuuhyXPeDko3WbO-25" vertex="1" connectable="0">
          <mxGeometry x="-0.1632" y="-1" relative="1" as="geometry">
            <mxPoint as="offset" />
          </mxGeometry>
        </mxCell>
        <mxCell id="iTkqzDuuhyXPeDko3WbO-20" value="Si num_secreto &amp;gt; num_ingresado" style="rhombus;whiteSpace=wrap;html=1;" parent="1" vertex="1">
          <mxGeometry x="540" y="260" width="140" height="130" as="geometry" />
        </mxCell>
        <mxCell id="iTkqzDuuhyXPeDko3WbO-35" style="edgeStyle=orthogonalEdgeStyle;rounded=0;orthogonalLoop=1;jettySize=auto;html=1;entryX=0.5;entryY=0;entryDx=0;entryDy=0;" parent="1" source="iTkqzDuuhyXPeDko3WbO-22" target="iTkqzDuuhyXPeDko3WbO-30" edge="1">
          <mxGeometry relative="1" as="geometry">
            <Array as="points">
              <mxPoint x="474" y="520" />
              <mxPoint x="530" y="520" />
            </Array>
          </mxGeometry>
        </mxCell>
        <mxCell id="iTkqzDuuhyXPeDko3WbO-22" value="&quot;El numero ingresado es menor que el numero secreto&quot;" style="shape=document;whiteSpace=wrap;html=1;boundedLbl=1;" parent="1" vertex="1">
          <mxGeometry x="414" y="390" width="120" height="80" as="geometry" />
        </mxCell>
        <mxCell id="iTkqzDuuhyXPeDko3WbO-34" style="edgeStyle=orthogonalEdgeStyle;rounded=0;orthogonalLoop=1;jettySize=auto;html=1;entryX=0.5;entryY=0;entryDx=0;entryDy=0;" parent="1" source="iTkqzDuuhyXPeDko3WbO-23" target="iTkqzDuuhyXPeDko3WbO-30" edge="1">
          <mxGeometry relative="1" as="geometry">
            <Array as="points">
              <mxPoint x="750" y="520" />
              <mxPoint x="530" y="520" />
            </Array>
          </mxGeometry>
        </mxCell>
        <mxCell id="iTkqzDuuhyXPeDko3WbO-23" value="&quot;El numero&amp;nbsp; ingresado es mayor que el numero secreto&quot;" style="shape=document;whiteSpace=wrap;html=1;boundedLbl=1;" parent="1" vertex="1">
          <mxGeometry x="690" y="390" width="120" height="80" as="geometry" />
        </mxCell>
        <mxCell id="iTkqzDuuhyXPeDko3WbO-30" value="Fin" style="ellipse;whiteSpace=wrap;html=1;" parent="1" vertex="1">
          <mxGeometry x="470" y="560" width="120" height="80" as="geometry" />
        </mxCell>
      </root>
    </mxGraphModel>
  </diagram>
</mxfile>
